<svg xmlns="http://www.w3.org/2000/svg" width="1200" height="900" viewBox="0 0 1200 900" role="img" aria-labelledby="title desc"><title id="title">SUMMECA AI Social Media Content Kit actual product preview</title><desc id="desc">Truthful preview of real files and editable resources included in AI Social Media Content Kit.</desc><defs><linearGradient id="bg" x1="0" y1="0" x2="1" y2="1"><stop stop-color="#05151d"/><stop offset=".58" stop-color="#092934"/><stop offset="1" stop-color="#0c3b45"/></linearGradient><linearGradient id="accent" x1="0" y1="0" x2="1" y2="0"><stop stop-color="#24dfc1"/><stop offset="1" stop-color="#55d8ff"/></linearGradient><filter id="shadow" x="-20%" y="-20%" width="140%" height="150%"><feDropShadow dx="0" dy="26" stdDeviation="26" flood-color="#01070a" flood-opacity=".45"/></filter></defs><rect width="1200" height="900" rx="46" fill="url(#bg)"/><circle cx="1100" cy="80" r="260" fill="#55d8ff" opacity=".06"/><circle cx="80" cy="880" r="250" fill="#24dfc1" opacity=".055"/><text x="52" y="62" font-family="Arial,Helvetica,sans-serif" font-size="16" font-weight="800" fill="#64eadb" letter-spacing="3">SUMMECA • REAL CONTENT PREVIEW</text><text x="52" y="112" font-family="Arial,Helvetica,sans-serif" font-size="40" font-weight="800" fill="#f4ffff">AI Social Media Content Kit</text><text x="52" y="146" font-family="Arial,Helvetica,sans-serif" font-size="17" fill="#a9c9d0">Real bundle preview: 300 prompts, hook and CTA libraries, platform frameworks, brand voice and a 30-day planner.</text><g transform="translate(48 180)" filter="url(#shadow)"><rect width="1104" height="680" rx="28" fill="#071d25" stroke="#2a5965"/><rect width="1104" height="58" rx="28" fill="#0b2a34"/><rect y="29" width="1104" height="29" fill="#0b2a34"/><circle cx="28" cy="29" r="6" fill="#ff7d79"/><circle cx="50" cy="29" r="6" fill="#ffd45f"/><circle cx="72" cy="29" r="6" fill="#4de3bd"/><text x="94" y="35" font-family="Arial,Helvetica,sans-serif" font-size="14" font-weight="700" fill="#e9fbfc">Protected ZIP • exact resources customers receive after verified purchase</text><line x1="326" y1="78" x2="326" y2="656" stroke="#244854"/><text x="22" y="96" font-family="Arial,Helvetica,sans-serif" font-size="11" font-weight="800" fill="#7daab4" letter-spacing="2">INCLUDED FILES</text><g font-family="Arial,Helvetica,sans-serif" font-size="11.5" fill="#d8edef"><g transform="translate(0 122)"><rect x="22" width="284" height="30" rx="8" fill="#0d2832" stroke="#244754"/><circle cx="38" cy="15" r="4" fill="#2be0c1"/><text x="50" y="20">START_HERE.txt</text></g><g transform="translate(0 160)"><rect x="22" width="284" height="30" rx="8" fill="#0d2832" stroke="#244754"/><circle cx="38" cy="15" r="4" fill="#2be0c1"/><text x="50" y="20">300_SOCIAL_MEDIA_AI_PROMPTS.csv</text></g><g transform="translate(0 198)"><rect x="22" width="284" height="30" rx="8" fill="#0d2832" stroke="#244754"/><circle cx="38" cy="15" r="4" fill="#2be0c1"/><text x="50" y="20">120_HOOK_LIBRARY.csv</text></g><g transform="translate(0 236)"><rect x="22" width="284" height="30" rx="8" fill="#0d2832" stroke="#244754"/><circle cx="38" cy="15" r="4" fill="#2be0c1"/><text x="50" y="20">80_CTA_LIBRARY.csv</text></g><g transform="translate(0 274)"><rect x="22" width="284" height="30" rx="8" fill="#0d2832" stroke="#244754"/><circle cx="38" cy="15" r="4" fill="#2be0c1"/><text x="50" y="20">PLATFORM_FRAMEWORKS.txt</text></g><g transform="translate(0 312)"><rect x="22" width="284" height="30" rx="8" fill="#0d2832" stroke="#244754"/><circle cx="38" cy="15" r="4" fill="#2be0c1"/><text x="50" y="20">30_DAY_CONTENT_PLANNER.csv</text></g><g transform="translate(0 350)"><rect x="22" width="284" height="30" rx="8" fill="#0d2832" stroke="#244754"/><circle cx="38" cy="15" r="4" fill="#2be0c1"/><text x="50" y="20">BRAND_VOICE_WORKSHEET.txt</text></g><g transform="translate(0 388)"><rect x="22" width="284" height="30" rx="8" fill="#0d2832" stroke="#244754"/><circle cx="38" cy="15" r="4" fill="#2be0c1"/><text x="50" y="20">LICENSE.txt</text></g></g><rect x="340" y="76" width="730" height="370" rx="18" fill="#eef7f8"/><text x="358" y="102" font-family="Arial,Helvetica,sans-serif" font-size="17" font-weight="800" fill="#0a313a">30_DAY_CONTENT_PLANNER.csv</text><rect x="340" y="104" width="730" height="44" rx="9" fill="#ddecef"/><g font-family="Arial,Helvetica,sans-serif"><g font-size="12" font-weight="800" fill="#3f5a62"><text x="354" y="138">Day</text><text x="524" y="138">Platform</text><text x="704" y="138">Content Pillar</text><text x="894" y="138">Status</text></g><g font-size="12.5" fill="#0b2f38"><rect x="340" y="158" width="730" height="50" rx="10" fill="#f8fbfc" stroke="#d9e7ea"/><text x="354" y="188" font-weight="700">1</text><text x="524" y="188">Instagram</text><text x="704" y="188">Core Skill</text><text x="894" y="188" fill="#0f8e80">Idea</text><rect x="340" y="220" width="730" height="50" rx="10" fill="#f8fbfc" stroke="#d9e7ea"/><text x="354" y="250" font-weight="700">2</text><text x="524" y="250">X / Twitter</text><text x="704" y="250">Customer Problem</text><text x="894" y="250" fill="#0f8e80">Idea</text><rect x="340" y="282" width="730" height="50" rx="10" fill="#f8fbfc" stroke="#d9e7ea"/><text x="354" y="312" font-weight="700">3</text><text x="524" y="312">LinkedIn</text><text x="704" y="312">Process</text><text x="894" y="312" fill="#0f8e80">Idea</text><rect x="340" y="344" width="730" height="50" rx="10" fill="#f8fbfc" stroke="#d9e7ea"/><text x="354" y="374" font-weight="700">4</text><text x="524" y="374">Facebook</text><text x="704" y="374">Offer</text><text x="894" y="374" fill="#0f8e80">Idea</text><rect x="340" y="406" width="730" height="50" rx="10" fill="#f8fbfc" stroke="#d9e7ea"/><text x="354" y="436" font-weight="700">5</text><text x="524" y="436">Short video</text><text x="704" y="436">Industry Insight</text><text x="894" y="436" fill="#0f8e80">Idea</text></g></g><g transform="translate(340 494)" font-family="Arial,Helvetica,sans-serif" font-size="12" font-weight="700" fill="#e6f8fa"><g><rect width="165" height="42" rx="14" fill="#0e2a34" stroke="#285461"/><circle cx="20" cy="21" r="6" fill="#29d9bd"/><text x="36" y="26">300 AI prompts</text></g><g transform="translate(177)"><rect width="165" height="42" rx="14" fill="#0e2a34" stroke="#285461"/><circle cx="20" cy="21" r="6" fill="#29d9bd"/><text x="36" y="26">120 hooks</text></g><g transform="translate(354)"><rect width="165" height="42" rx="14" fill="#0e2a34" stroke="#285461"/><circle cx="20" cy="21" r="6" fill="#29d9bd"/><text x="36" y="26">80 CTA goals</text></g><g transform="translate(531)"><rect width="190" height="42" rx="14" fill="#0e2a34" stroke="#285461"/><circle cx="20" cy="21" r="6" fill="#29d9bd"/><text x="36" y="26">30-day planner</text></g></g><text x="340" y="646" font-family="Arial,Helvetica,sans-serif" font-size="12" fill="#7fa8b2">Preview uses the real file names and real editable structure from this SUMMECA product.</text></g></svg>