<svg xmlns="http://www.w3.org/2000/svg" width="1200" height="800" viewBox="0 0 1200 800" role="img" aria-labelledby="title desc">
  <title id="title">SUMMECA InvoiceFlow</title>
  <desc id="desc">Premium dark teal product artwork for the InvoiceFlow SaaS workspace.</desc>
  <defs>
    <linearGradient id="bg" x1="0" y1="0" x2="1" y2="1"><stop offset="0" stop-color="#041722"/><stop offset="0.6" stop-color="#0a3036"/><stop offset="1" stop-color="#0b6b65"/></linearGradient>
    <linearGradient id="accent" x1="0" y1="0" x2="1" y2="0"><stop offset="0" stop-color="#27d8c5"/><stop offset="1" stop-color="#86fff0"/></linearGradient>
    <filter id="shadow" x="-30%" y="-30%" width="160%" height="160%"><feDropShadow dx="0" dy="20" stdDeviation="26" flood-color="#000" flood-opacity=".3"/></filter>
  </defs>
  <rect width="1200" height="800" rx="48" fill="url(#bg)"/>
  <circle cx="1030" cy="120" r="280" fill="#49e3d2" opacity=".08"/><circle cx="1040" cy="730" r="350" fill="#49e3d2" opacity=".05"/>
  <rect x="70" y="70" width="1060" height="660" rx="38" fill="#fff" opacity=".045" stroke="#fff" stroke-opacity=".13"/>
  <g transform="translate(100 108)">
    <rect width="154" height="46" rx="23" fill="url(#accent)"/><text x="77" y="30" text-anchor="middle" font-family="Arial,Helvetica,sans-serif" font-size="18" font-weight="800" fill="#03221f">SUMMECA SaaS</text>
    <text x="0" y="132" font-family="Arial,Helvetica,sans-serif" font-size="66" font-weight="800" fill="#fff">InvoiceFlow</text>
    <text x="0" y="182" font-family="Arial,Helvetica,sans-serif" font-size="26" fill="#c7dadd">Professional invoicing without the clutter.</text>
    <g transform="translate(0 292)" font-family="Arial,Helvetica,sans-serif" font-size="23" fill="#f3fffd">
      <text y="0">Create and share professional invoices</text><text y="50">Track draft, sent and paid status</text><text y="100">Client management + PDF-ready views</text><text y="150">CSV export + payment reminders</text>
    </g>
  </g>
  <g transform="translate(790 235)" filter="url(#shadow)">
    <rect width="310" height="365" rx="30" fill="#fff"/>
    <rect x="26" y="28" width="116" height="18" rx="9" fill="#d8f8f3"/><rect x="26" y="66" width="210" height="18" rx="9" fill="#0f766e"/>
    <rect x="26" y="118" width="258" height="1" fill="#e4eceb"/>
    <rect x="26" y="145" width="164" height="13" rx="6" fill="#b8cecc"/><rect x="230" y="145" width="54" height="13" rx="6" fill="#0f766e"/>
    <rect x="26" y="180" width="196" height="13" rx="6" fill="#b8cecc"/><rect x="230" y="180" width="54" height="13" rx="6" fill="#0f766e"/>
    <rect x="26" y="215" width="138" height="13" rx="6" fill="#b8cecc"/><rect x="230" y="215" width="54" height="13" rx="6" fill="#0f766e"/>
    <rect x="190" y="265" width="94" height="1" fill="#d4e1df"/><rect x="205" y="288" width="79" height="16" rx="8" fill="#25c9b7"/>
    <rect x="180" y="325" width="104" height="20" rx="10" fill="#082a2d"/>
  </g>
</svg>
